<?xml version="1.0" encoding="UTF-8"?>
<svg width="100" height="100" viewBox="0 0 100 100" xmlns="http://www.w3.org/2000/svg">
  <defs>
    <linearGradient id="logo-gradient-square" x1="0%" y1="0%" x2="100%" y2="100%">
      <stop offset="0%" style="stop-color:#059669;stop-opacity:1" />
      <stop offset="100%" style="stop-color:#10b981;stop-opacity:1" />
    </linearGradient>
    <linearGradient id="inner-gradient" x1="0%" y1="0%" x2="100%" y2="100%">
      <stop offset="0%" style="stop-color:#0f172a;stop-opacity:1" />
      <stop offset="100%" style="stop-color:#1e293b;stop-opacity:1" />
    </linearGradient>
    <filter id="glow" x="-20%" y="-20%" width="140%" height="140%">
      <feGaussianBlur stdDeviation="3" result="blur" />
      <feComposite in="SourceGraphic" in2="blur" operator="over" />
    </filter>
  </defs>
  
  <!-- Background Square -->
  <rect x="5" y="5" width="90" height="90" rx="20" ry="20" fill="url(#logo-gradient-square)" />
  
  <!-- Inner Square -->
  <rect x="12" y="12" width="76" height="76" rx="16" ry="16" fill="url(#inner-gradient)" stroke="#ffffff" stroke-width="1" stroke-opacity="0.3" />
  
  <!-- Z Symbol -->
  <path d="M30,30 L70,30 L30,70 L70,70" 
        fill="none" 
        stroke="#34d399" 
        stroke-width="6"
        stroke-linecap="round"
        stroke-linejoin="round"
        filter="url(#glow)" />
  
  <!-- Security Shield Backdrop -->
  <path d="M50,25 L65,32 L65,50 C65,65 55,75 50,75 C45,75 35,65 35,50 L35,32 Z" 
        fill="none" 
        stroke="#34d399" 
        stroke-width="2"
        stroke-opacity="0.4" />
  
  <!-- Digital Circuit Elements -->
  <path d="M25,85 L35,85 L35,75 L50,75 L65,75 L65,85 L75,85" 
        fill="none" 
        stroke="#34d399" 
        stroke-width="1.5"
        stroke-linecap="round" />
  
  <!-- Circuit Nodes -->
  <circle cx="25" cy="85" r="2" fill="#34d399" />
  <circle cx="35" cy="85" r="2" fill="#34d399" />
  <circle cx="50" cy="75" r="2" fill="#34d399" />
  <circle cx="65" cy="85" r="2" fill="#34d399" />
  <circle cx="75" cy="85" r="2" fill="#34d399" />
  
  <!-- Pulse Animation Effect -->
  <circle cx="50" cy="50" r="20" fill="none" stroke="#10b981" stroke-width="1" stroke-opacity="0.5">
    <animate attributeName="r" from="20" to="30" dur="2s" repeatCount="indefinite" />
    <animate attributeName="stroke-opacity" from="0.5" to="0" dur="2s" repeatCount="indefinite" />
  </circle>
  
  <!-- Center Dot -->
  <circle cx="50" cy="50" r="3" fill="#34d399">
    <animate attributeName="opacity" values="1;0.7;1" dur="3s" repeatCount="indefinite" />
  </circle>
</svg>
