<?xml version="1.0" encoding="UTF-8"?>
<svg width="150" height="50" viewBox="0 0 150 50" xmlns="http://www.w3.org/2000/svg">
  <defs>
    <linearGradient id="logo-gradient" x1="0%" y1="0%" x2="100%" y2="100%">
      <stop offset="0%" style="stop-color:#2563eb;stop-opacity:1" />
      <stop offset="100%" style="stop-color:#3b82f6;stop-opacity:1" />
    </linearGradient>
  </defs>
  
  <!-- Shield Icon -->
  <path d="M25,5 L40,10 L40,25 C40,35 30,45 25,45 C20,45 10,35 10,25 L10,10 Z" fill="url(#logo-gradient)" />
  
  <!-- Inner Shield Design -->
  <path d="M25,8 L37,12 L37,25 C37,33 28,42 25,42 C22,42 13,33 13,25 L13,12 Z" fill="none" stroke="#ffffff" stroke-width="1" />
  
  <!-- Security Camera -->
  <circle cx="25" cy="22" r="7" fill="#0f172a" />
  <circle cx="25" cy="22" r="5" fill="#1e40af" />
  <circle cx="25" cy="22" r="2" fill="#000000" />
  <circle cx="23" cy="20" r="1" fill="#ffffff" opacity="0.7" />
  
  <!-- Circuit Board Lines -->
  <line x1="55" y1="32" x2="145" y2="32" stroke="#e2e8f0" stroke-width="0.5" />
  <line x1="100" y1="32" x2="100" y2="42" stroke="#e2e8f0" stroke-width="0.5" />
  <circle cx="100" cy="32" r="1" fill="#10b981" />
  <circle cx="120" cy="32" r="1" fill="#10b981" />
  <circle cx="80" cy="32" r="1" fill="#10b981" />
</svg>