<?xml version="1.0" encoding="UTF-8"?>
<svg width="100" height="100" viewBox="0 0 100 100" xmlns="http://www.w3.org/2000/svg">
  <defs>
    <linearGradient id="gate-gradient" x1="0%" y1="0%" x2="100%" y2="100%">
      <stop offset="0%" style="stop-color:#2563eb;stop-opacity:1" />
      <stop offset="100%" style="stop-color:#3b82f6;stop-opacity:1" />
    </linearGradient>
  </defs>
  
  <!-- Gate Posts -->
  <rect x="20" y="15" width="8" height="70" fill="#64748b" />
  <rect x="72" y="15" width="8" height="70" fill="#64748b" />
  
  <!-- Gate (Sliding) -->
  <rect x="28" y="25" width="44" height="50" rx="2" fill="#94a3b8" />
  <rect x="33" y="30" width="34" height="40" rx="1" fill="#e2e8f0" />
  
  <!-- Gate Bars -->
  <rect x="33" y="35" width="34" height="2" fill="#94a3b8" />
  <rect x="33" y="45" width="34" height="2" fill="#94a3b8" />
  <rect x="33" y="55" width="34" height="2" fill="#94a3b8" />
  <rect x="33" y="65" width="34" height="2" fill="#94a3b8" />
  
  <!-- Gate Track -->
  <rect x="20" y="75" width="60" height="5" rx="1" fill="#475569" />
  
  <!-- Control Box -->
  <rect x="5" y="40" width="12" height="20" rx="2" fill="url(#gate-gradient)" />
  <circle cx="11" cy="45" r="2" fill="#10b981">
    <animate attributeName="opacity" values="1;0.4;1" dur="3s" repeatCount="indefinite" />
  </circle>
  
  <!-- Remote Controller -->
  <rect x="85" y="45" width="10" height="15" rx="2" fill="#475569" />
  <rect x="87" y="48" width="6" height="4" rx="1" fill="#94a3b8" />
  <circle cx="90" cy="55" r="2" fill="#ef4444" />
  
  <!-- Wireless Signals -->
  <path d="M17,40 C25,35 25,45 17,40" fill="none" stroke="#10b981" stroke-width="1" opacity="0.7">
    <animate attributeName="opacity" values="0.7;0.2;0.7" dur="2s" repeatCount="indefinite" />
  </path>
  <path d="M17,35 C30,25 30,55 17,45" fill="none" stroke="#10b981" stroke-width="1" opacity="0.5">
    <animate attributeName="opacity" values="0.5;0.1;0.5" dur="2s" repeatCount="indefinite" />
  </path>
  
  <!-- Arrow indicating motion -->
  <path d="M50,20 L40,15 L40,25 Z" fill="#f8fafc">
    <animate attributeName="transform" attributeType="XML" type="translate" from="0 0" to="-10 0" dur="2s" repeatCount="indefinite" />
  </path>
</svg>